HIERARCHY
ROOT Hips
{
	OFFSET 0.000000 0.000000 0.000000
	CHANNELS 6 Xposition Yposition Zposition Xrotation Yrotation Zrotation
	JOINT LeftUpLeg_virtual
	{
		OFFSET 0.000000 0.000000 0.000000
		CHANNELS 3 Xrotation Yrotation Zrotation
		JOINT LeftUpLeg
		{
			OFFSET 11.394100 -6.187798 -0.413800
			CHANNELS 3 Xrotation Yrotation Zrotation
			JOINT LeftLeg
			{
				OFFSET 0.430247 -32.302673 3.732800
				CHANNELS 3 Xrotation Yrotation Zrotation
				JOINT LeftFoot
				{
					OFFSET -0.430247 -48.264931 -6.423300
					CHANNELS 3 Xrotation Yrotation Zrotation
					JOINT LeftToeBase
					{
						OFFSET 4.230900 -16.068199 23.438400
						CHANNELS 3 Xrotation Yrotation Zrotation
						JOINT LeftToe_End
						{
							OFFSET 4.510700 0.695400 19.974600
							CHANNELS 3 Xrotation Yrotation Zrotation
							End Site
							{
								OFFSET 0 0 0
							}
						}
					}
				}
			}
		}
	}
	JOINT RightUpLeg_virtual
	{
		OFFSET 0.000000 0.000000 0.000000
		CHANNELS 3 Xrotation Yrotation Zrotation
		JOINT RightUpLeg
		{
			OFFSET -11.333700 -6.187798 -0.413800
			CHANNELS 3 Xrotation Yrotation Zrotation
			JOINT RightLeg
			{
				OFFSET -0.430392 -32.302628 3.733000
				CHANNELS 3 Xrotation Yrotation Zrotation
				JOINT RightFoot
				{
					OFFSET 0.430392 -48.264973 -6.423500
					CHANNELS 3 Xrotation Yrotation Zrotation
					JOINT RightToeBase
					{
						OFFSET -4.230900 -16.068199 23.438400
						CHANNELS 3 Xrotation Yrotation Zrotation
						JOINT RightToe_End
						{
							OFFSET -4.510700 0.695400 19.974600
							CHANNELS 3 Xrotation Yrotation Zrotation
							End Site
							{
								OFFSET 0 0 0
							}
						}
					}
				}
			}
		}
	}
	JOINT Spine_virtual
	{
		OFFSET 0.000000 0.000000 0.000000
		CHANNELS 3 Xrotation Yrotation Zrotation
		JOINT Spine
		{
			OFFSET -0.002400 12.777504 0.315300
			CHANNELS 3 Xrotation Yrotation Zrotation
			JOINT Spine1
			{
				OFFSET -0.002067 5.816869 0.032633
				CHANNELS 3 Xrotation Yrotation Zrotation
				JOINT Spine1_split
				{
					OFFSET -0.002067 5.816869 0.032633
					CHANNELS 3 Xrotation Yrotation Zrotation
					JOINT Spine2
					{
						OFFSET -0.002067 5.816869 0.032633
						CHANNELS 3 Xrotation Yrotation Zrotation
						JOINT Neck_virtual
						{
							OFFSET 0.000000 0.000000 0.000000
							CHANNELS 3 Xrotation Yrotation Zrotation
							JOINT Neck
							{
								OFFSET -0.003700 21.199493 -0.826900
								CHANNELS 3 Xrotation Yrotation Zrotation
								JOINT Head
								{
									OFFSET 0.000000 20.442200 4.834800
									CHANNELS 3 Xrotation Yrotation Zrotation
									JOINT HeadTop_End
									{
										OFFSET 0.000000 34.668396 4.968400
										CHANNELS 3 Xrotation Yrotation Zrotation
										End Site
										{
											OFFSET 0 0 0
										}
									}
								}
							}
						}
						JOINT LeftShoulder_virtual
						{
							OFFSET 0.000000 0.000000 0.000000
							CHANNELS 3 Xrotation Yrotation Zrotation
							JOINT LeftShoulder
							{
								OFFSET 3.288150 8.794197 -1.372250
								CHANNELS 3 Xrotation Yrotation Zrotation
								JOINT LeftShoulder_split
								{
									OFFSET 3.288150 8.794197 -1.372250
									CHANNELS 3 Xrotation Yrotation Zrotation
									JOINT LeftArm
									{
										OFFSET 11.953299 -2.279007 -0.146200
										CHANNELS 3 Xrotation Yrotation Zrotation
										JOINT LeftForeArm
										{
											OFFSET 18.448900 0.000000 0.000000
											CHANNELS 3 Xrotation Yrotation Zrotation
											JOINT LeftHand
											{
												OFFSET 29.527798 0.000000 0.000000
												CHANNELS 3 Xrotation Yrotation Zrotation
												End Site
												{
													OFFSET 0 0 0
												}
											}
										}
									}
								}
							}
						}
						JOINT RightShoulder_virtual
						{
							OFFSET 0.000000 0.000000 0.000000
							CHANNELS 3 Xrotation Yrotation Zrotation
							JOINT RightShoulder
							{
								OFFSET -3.249400 8.794197 -1.372250
								CHANNELS 3 Xrotation Yrotation Zrotation
								JOINT RightShoulder_split
								{
									OFFSET -3.249400 8.794197 -1.372250
									CHANNELS 3 Xrotation Yrotation Zrotation
									JOINT RightArm
									{
										OFFSET -11.953299 -2.279007 -0.146200
										CHANNELS 3 Xrotation Yrotation Zrotation
										JOINT RightForeArm
										{
											OFFSET -18.448900 0.000000 0.000000
											CHANNELS 3 Xrotation Yrotation Zrotation
											JOINT RightHand
											{
												OFFSET -29.527802 0.000000 0.000000
												CHANNELS 3 Xrotation Yrotation Zrotation
												End Site
												{
													OFFSET 0 0 0
												}
											}
										}
									}
								}
							}
						}
					}
				}
			}
		}
	}
}
MOTION
Frames: 10
Frame Time: 0.03333333
-1.057072 99.064972 -0.552971 0.000000 0.000000 0.000000 -1.915434 -0.116106 -0.434480 -13.024995 3.694073 9.404275 22.175229 5.786066 3.004843 -8.350694 1.815901 -11.596308 2.367376 0.546714 -1.956209 0.000000 0.000000 0.000000 -1.682558 0.490128 -0.410797 -14.926439 1.753804 -2.957779 22.427915 -2.217754 -3.823863 -5.049505 0.287817 5.142557 2.998595 -0.455815 -0.424439 0.000000 0.000000 0.000000 -1.849900 -1.431173 -0.698649 0.856923 -0.867629 0.304484 -1.121526 -0.261098 0.583555 1.034823 0.161056 0.010515 0.000000 0.000000 0.000000 -1.551672 -0.000795 0.579588 -0.524338 0.624469 -1.109685 4.325324 -1.891300 1.985801 0.000000 0.000000 0.000000 -1.631109 0.163262 0.281445 1.409157 -10.819418 -10.396728 -2.761128 0.344024 -1.749210 20.727862 -21.577187 -65.609745 -1.097537 -19.795657 0.891345 0.000000 0.000000 0.000000 -1.133485 0.162654 0.540773 1.618947 5.413867 10.796806 -0.502437 3.086415 -1.965330 5.995827 23.579522 66.564271 0.593930 16.158076 0.654795 0.000000 0.000000 0.000000 
-0.843778 99.211334 -0.577560 0.000000 0.000000 0.000000 -1.886428 -0.134010 -0.431874 -12.929577 3.465565 9.385856 22.090725 5.945670 2.991402 -8.177563 1.959696 -11.391214 2.208002 0.587573 -1.989272 0.000000 0.000000 0.000000 -1.651800 0.402072 -0.423595 -14.604679 1.658364 -3.004095 22.105190 -2.252822 -3.896820 -4.791026 0.233000 4.745612 2.610006 -0.524505 -0.221917 0.000000 0.000000 0.000000 -1.727625 -1.527421 -0.768721 0.718700 -0.834269 0.356921 -1.082034 -0.260180 0.586087 1.115739 0.309612 0.088781 0.000000 0.000000 0.000000 -1.563141 -0.014296 0.592392 -0.568020 0.678565 -1.082260 4.257741 -1.947319 1.908518 0.000000 0.000000 0.000000 -1.623878 0.174525 0.284911 1.411623 -10.880139 -10.507422 -2.740331 0.368677 -1.747111 20.696515 -21.678141 -65.661477 -1.091543 -19.837943 0.781920 0.000000 0.000000 0.000000 -1.110469 0.165667 0.535911 1.634972 5.575030 10.850690 -0.420564 3.216568 -2.001463 6.148851 23.701593 66.381311 0.650024 16.061593 0.661313 0.000000 0.000000 0.000000 
-0.657757 99.349777 -0.601681 0.000000 0.000000 0.000000 -1.960380 -0.255860 -0.471458 -12.906691 3.391572 9.381128 22.013918 6.264578 3.012623 -7.928612 2.000130 -11.069301 2.055091 0.655015 -1.940800 0.000000 0.000000 0.000000 -1.621006 0.327921 -0.507971 -14.223811 1.597176 -2.994116 21.848242 -2.278162 -4.020846 -5.143905 0.214334 4.138304 2.425464 -0.516949 -0.210988 0.000000 0.000000 0.000000 -1.575785 -1.669611 -0.878726 0.657340 -0.765134 0.474331 -1.003841 -0.250509 0.565415 1.165787 0.331845 0.085033 0.000000 0.000000 0.000000 -1.540602 -0.027110 0.578733 -0.586886 0.787741 -1.112399 4.009071 -2.002274 1.915055 0.000000 0.000000 0.000000 -1.580641 0.180744 0.261508 1.408895 -10.985838 -10.623546 -2.764812 0.600805 -1.713509 20.580687 -21.688217 -65.722682 -1.054089 -20.006196 0.668594 0.000000 0.000000 0.000000 -1.057750 0.159298 0.500119 1.682928 5.740508 10.878402 -0.278891 3.349247 -2.043151 6.425561 24.008001 65.963617 0.729078 16.161546 0.642940 0.000000 0.000000 0.000000 
-0.498812 99.382187 -0.657879 0.000000 0.000000 0.000000 -2.060477 -0.498649 -0.544128 -12.956801 3.518355 9.348266 21.989881 6.727683 3.068332 -7.756474 1.964826 -10.706824 1.944456 0.739715 -1.805299 0.000000 0.000000 0.000000 -1.540941 0.241635 -0.606823 -14.050831 1.541463 -2.980757 21.836046 -2.298510 -4.108584 -5.764738 0.214468 3.510429 2.312585 -0.475025 -0.387406 0.000000 0.000000 0.000000 -1.412342 -1.870239 -0.979886 0.680166 -0.683639 0.616442 -0.883553 -0.224942 0.527610 1.112707 0.275647 -0.019530 0.000000 0.000000 0.000000 -1.473916 -0.030044 0.546641 -0.595620 0.920357 -1.179126 3.570787 -2.059606 2.025814 0.000000 0.000000 0.000000 -1.503316 0.190810 0.221157 1.396927 -11.113781 -10.724503 -2.871326 0.887831 -1.656131 20.440350 -21.691545 -65.662235 -1.004437 -20.256509 0.538662 0.000000 0.000000 0.000000 -0.981272 0.150525 0.439954 1.756256 5.904555 10.865046 -0.071261 3.457110 -2.063308 6.708719 24.461015 65.390442 0.809459 16.415089 0.611489 0.000000 0.000000 0.000000 
-0.340993 99.313698 -0.745262 0.000000 0.000000 0.000000 -2.069193 -0.873558 -0.633289 -13.204232 3.777064 9.280247 22.086759 7.314648 3.155638 -7.775971 1.900259 -10.392305 1.879923 0.816924 -1.567187 0.000000 0.000000 0.000000 -1.373698 0.057462 -0.708864 -14.252617 1.447392 -2.984888 21.884011 -2.174700 -4.142909 -6.210480 0.228109 3.299058 1.599317 -0.454481 -0.777637 0.000000 0.000000 0.000000 -1.199442 -2.096163 -1.085728 0.766217 -0.612071 0.738039 -0.718611 -0.188307 0.480083 0.998300 0.137716 -0.088088 0.000000 0.000000 0.000000 -1.352297 -0.013904 0.505419 -0.618149 1.031957 -1.245621 2.942081 -2.127360 2.276745 0.000000 0.000000 0.000000 -1.382311 0.218568 0.177845 1.374513 -11.268864 -10.787117 -2.956996 1.070501 -1.769531 20.294906 -21.775121 -65.408514 -0.947015 -20.607451 0.394469 0.000000 0.000000 0.000000 -0.874661 0.149635 0.374219 1.844011 6.094115 10.823496 0.154035 3.522141 -2.107281 6.885447 25.036296 64.763895 0.856817 16.766661 0.575047 0.000000 0.000000 0.000000 
-0.200781 99.187531 -0.837246 0.000000 0.000000 0.000000 -1.898077 -1.295553 -0.746479 -13.701749 4.033553 9.227623 22.381230 7.949836 3.262513 -7.944793 1.826949 -10.269056 1.759048 0.861966 -1.199679 0.000000 0.000000 0.000000 -1.089000 -0.272373 -0.828061 -14.891277 1.369990 -2.961614 21.878409 -1.904099 -4.125692 -6.311491 0.241043 3.603601 0.451729 -0.484990 -1.245213 0.000000 0.000000 0.000000 -0.919347 -2.340939 -1.274489 0.887494 -0.571033 0.810273 -0.519546 -0.140519 0.426324 0.918749 -0.000676 -0.014003 0.000000 0.000000 0.000000 -1.165286 0.027803 0.461765 -0.671247 1.098578 -1.292105 2.130211 -2.255161 2.684136 0.000000 0.000000 0.000000 -1.220044 0.267763 0.141581 1.340333 -11.469578 -10.799236 -2.919413 1.081335 -1.994948 20.101230 -21.916426 -64.949088 -0.882247 -21.031635 0.246239 0.000000 0.000000 0.000000 -0.733416 0.168238 0.311456 1.928295 6.355577 10.759302 0.386458 3.575214 -2.153288 6.892957 25.731802 64.161943 0.854730 17.146524 0.546183 0.000000 0.000000 0.000000 
-0.083580 99.054222 -1.067932 0.000000 0.000000 0.000000 -1.531624 -1.886956 -0.933125 -14.430766 4.133382 9.286967 22.974209 8.614757 3.386771 -8.156660 1.838276 -10.442686 1.565880 0.854813 -0.736572 0.000000 0.000000 0.000000 -0.697562 -0.811741 -1.014239 -15.927796 1.318368 -2.883817 21.816113 -1.588381 -4.057566 -6.049680 0.221067 4.167501 -0.481758 -0.565999 -1.537296 0.000000 0.000000 0.000000 -0.506439 -2.629976 -1.563282 1.023947 -0.549125 0.802028 -0.279992 -0.082918 0.370316 0.913069 -0.059243 0.095811 0.000000 0.000000 0.000000 -0.907788 0.087225 0.412835 -0.761314 1.081920 -1.288673 1.175590 -2.492214 3.274502 0.000000 0.000000 0.000000 -1.011745 0.327823 0.106990 1.298497 -11.752315 -10.754421 -2.704963 0.935478 -2.177256 19.650070 -22.003065 -64.359623 -0.777430 -21.487425 0.128493 0.000000 0.000000 0.000000 -0.546255 0.203958 0.256226 2.002686 6.716804 10.700356 0.593615 3.571645 -2.173845 6.716660 26.559346 63.640991 0.806858 17.516959 0.518729 0.000000 0.000000 0.000000 
0.002144 98.934074 -1.505718 0.000000 0.000000 0.000000 -1.018979 -2.569169 -1.241175 -15.443660 3.938962 9.573556 23.923957 9.308964 3.484426 -8.424382 2.029346 -10.900636 1.350603 0.797332 -0.239919 0.000000 0.000000 0.000000 -0.258769 -1.615074 -1.340327 -17.345207 1.338065 -2.668864 21.752337 -1.335397 -3.967178 -5.679628 0.142795 4.808506 -0.595342 -0.694441 -1.457671 0.000000 0.000000 0.000000 0.047912 -3.110730 -1.978906 1.199677 -0.525174 0.705895 -0.004792 -0.026393 0.310963 0.975502 -0.075849 0.168025 0.000000 0.000000 0.000000 -0.586058 0.154924 0.342295 -0.856012 0.988794 -1.190210 0.127841 -2.848089 4.052690 0.000000 0.000000 0.000000 -0.748047 0.392820 0.057855 1.260238 -12.144790 -10.655946 -2.425204 0.820444 -2.311989 18.773062 -21.811108 -63.743417 -0.646220 -21.960081 0.051064 0.000000 0.000000 0.000000 -0.301026 0.253317 0.198552 2.060944 7.193388 10.646927 0.761635 3.584546 -2.205531 6.387627 27.537000 63.179059 0.717634 17.972014 0.497723 0.000000 0.000000 0.000000 
0.034714 98.689873 -2.029415 0.000000 0.000000 0.000000 -0.444489 -3.431673 -1.733576 -16.685191 3.390011 10.185205 25.329936 9.947115 3.508061 -8.757693 2.438106 -11.670695 1.171037 0.703215 0.209213 0.000000 0.000000 0.000000 0.202179 -2.687364 -1.849183 -19.163318 1.503328 -2.210492 22.120691 -1.191786 -3.856914 -5.365206 0.079945 5.447283 -0.041380 -0.833596 -0.994709 0.000000 0.000000 0.000000 0.685708 -3.919096 -2.506420 1.450251 -0.493023 0.524829 0.307881 0.031916 0.236044 1.066402 -0.112012 0.203945 0.000000 0.000000 0.000000 -0.220045 0.222573 0.233997 -0.912361 0.824304 -0.967527 -0.942324 -3.303069 4.992673 0.000000 0.000000 0.000000 -0.430362 0.448930 -0.024201 1.234351 -12.643659 -10.534567 -2.226425 0.831066 -2.415162 17.559064 -21.237208 -63.141820 -0.505950 -22.563759 0.007843 0.000000 0.000000 0.000000 0.000000 0.304560 0.113928 2.105114 7.798364 10.605715 0.887260 3.614942 -2.261411 5.957353 28.632073 62.664739 0.617252 18.600227 0.483402 0.000000 0.000000 0.000000 
-0.027781 98.187912 -2.578846 0.000000 0.000000 0.000000 0.162200 -4.517786 -2.408575 -18.085547 2.602908 11.143963 27.287497 10.515951 3.380251 -9.347333 3.108922 -12.600955 1.156015 0.592957 0.508855 0.000000 0.000000 0.000000 0.602843 -4.005564 -2.534080 -21.354569 1.837600 -1.475370 23.224424 -1.095559 -3.770411 -5.231200 0.173707 6.241607 0.443517 -0.943563 -0.428613 0.000000 0.000000 0.000000 1.310581 -5.110943 -3.122351 1.809445 -0.463969 0.270467 0.650839 0.082225 0.120317 1.120935 -0.183950 0.170203 0.000000 0.000000 0.000000 0.162978 0.283020 0.080498 -0.875966 0.630041 -0.620010 -1.926898 -3.823174 6.056603 0.000000 0.000000 0.000000 -0.082447 0.490101 -0.149772 1.222347 -13.213843 -10.391002 -2.139832 0.847618 -2.453766 16.280309 -20.260937 -62.602768 -0.378812 -23.620780 -0.003500 0.000000 0.000000 0.000000 0.341625 0.340633 -0.012373 2.140892 8.512013 10.581981 1.006870 3.669657 -2.360794 5.445503 29.731656 62.027099 0.535923 19.444761 0.464045 0.000000 0.000000 0.000000 
